<svg width="48" height="32" viewBox="0 0 48 32" fill="none" xmlns="http://www.w3.org/2000/svg">
<path fill-rule="evenodd" clip-rule="evenodd" d="M14.3113 9.82777C14.7542 9.29657 15.0532 8.55817 14.9719 7.82217C14.3318 7.84777 13.5578 8.24537 13.1019 8.77497C12.6891 9.24457 12.3318 9.99657 12.4305 10.7182C13.1423 10.7726 13.8683 10.359 14.3113 9.82777ZM16.1504 14.4982C16.1362 12.9062 17.4628 12.1406 17.5242 12.103C16.7758 11.0262 15.6152 10.8766 15.2018 10.8598C14.2126 10.763 13.2697 11.4366 12.7698 11.4366C12.2679 11.4366 11.4959 10.875 10.6739 10.8926C9.59576 10.9078 8.60176 11.5126 8.0468 12.467C6.9296 14.3942 7.76312 17.2398 8.85384 18.799C9.38792 19.5622 10.0228 20.419 10.8595 20.3886C11.6649 20.3574 11.967 19.8726 12.9402 19.8726C13.9112 19.8718 14.1859 20.387 15.034 20.3726C15.8994 20.3542 16.4487 19.5934 16.9794 18.827C17.5895 17.943 17.8424 17.0846 17.8552 17.0422C17.8378 17.0302 16.1696 16.4006 16.1504 14.4982ZM26.4543 9.82697C26.1317 9.51977 25.7156 9.27977 25.2176 9.11497C24.724 8.95257 24.1312 8.87017 23.4558 8.87017C23.0233 8.86857 22.591 8.89017 22.1609 8.93657C21.8023 8.97657 21.4449 9.02617 21.0892 9.08537L20.9849 9.10377V20.2918H22.0174V15.5782C22.3651 15.6374 22.7632 15.6686 23.2023 15.6686C23.7867 15.6686 24.3342 15.5942 24.8297 15.4494C25.3062 15.315 25.7503 15.0862 26.1342 14.7758C26.5041 14.4702 26.8015 14.0878 27.0056 13.6558C27.2168 13.2126 27.3242 12.691 27.3242 12.1046C27.3242 11.6198 27.2468 11.183 27.0958 10.8078C26.9498 10.4422 26.7316 10.1086 26.4543 9.82697ZM25.5055 14.1006C24.9756 14.5406 24.2254 14.763 23.2734 14.763C23.0116 14.763 22.7639 14.7518 22.5366 14.731C22.3618 14.715 22.1884 14.6862 22.018 14.6446V9.88697C22.1544 9.86217 22.3234 9.83897 22.5218 9.81737C22.7734 9.79097 23.0762 9.77737 23.4232 9.77737C23.8216 9.77417 24.2186 9.82457 24.603 9.92937C24.9305 10.0182 25.2382 10.1678 25.5102 10.3686C25.7578 10.559 25.9525 10.8054 26.0875 11.103C26.2238 11.4046 26.2924 11.7646 26.2924 12.1718C26.2918 13.0174 26.0267 13.6662 25.5055 14.1006ZM33.4961 19.2446C33.4846 18.9278 33.4801 18.6102 33.4801 18.2934V15.183C33.4801 14.8142 33.4422 14.4382 33.3686 14.0646C33.2978 13.6926 33.1522 13.339 32.941 13.0238C32.7311 12.7118 32.4372 12.455 32.0697 12.2582C31.7023 12.063 31.2248 11.9638 30.6494 11.9638C30.2293 11.9638 29.8191 12.0182 29.4318 12.1246C29.0249 12.2406 28.6403 12.4214 28.2928 12.6606L28.2089 12.7182L28.5578 13.5254L28.684 13.4414C28.9593 13.259 29.2605 13.1166 29.5777 13.0206C29.8982 12.9222 30.2321 12.871 30.5679 12.8702C30.9982 12.8702 31.342 12.9478 31.587 13.0998C31.8361 13.2534 32.0236 13.4438 32.1446 13.667C32.2708 13.8966 32.3533 14.1414 32.3898 14.395C32.4289 14.659 32.4474 14.8958 32.4474 15.0982V15.1878C30.9169 15.1814 29.7217 15.4334 28.9279 15.939C28.095 16.4702 27.6726 17.2254 27.6726 18.1846C27.6726 18.4606 27.7225 18.739 27.8211 19.0134C27.9208 19.2918 28.0726 19.5406 28.271 19.7534C28.4709 19.9686 28.7288 20.1438 29.0374 20.275C29.3446 20.407 29.7063 20.4742 30.1102 20.4742C30.6821 20.483 31.245 20.331 31.7324 20.035C31.945 19.9054 32.1338 19.7574 32.2952 19.5982C32.3638 19.5302 32.4295 19.459 32.4917 19.3846H32.5314L32.6262 20.2926H33.6214L33.5939 20.147C33.5393 19.8486 33.5066 19.547 33.4961 19.2446ZM32.4474 17.651C32.4474 17.7598 32.4212 17.9094 32.3713 18.0886C32.3044 18.283 32.2109 18.4662 32.0934 18.635C31.832 19.0142 31.452 19.2974 31.0123 19.443C30.7453 19.5294 30.4654 19.5718 30.1845 19.5678C29.9991 19.5678 29.8153 19.5366 29.6404 19.4758C29.4706 19.4174 29.3148 19.3254 29.1827 19.2046C29.0441 19.075 28.9347 18.9182 28.8613 18.7446C28.78 18.559 28.739 18.3286 28.739 18.0614C28.739 17.6238 28.8581 17.2686 29.0918 17.0086C29.3434 16.7326 29.6593 16.5206 30.0124 16.3918C30.4122 16.243 30.8306 16.1486 31.2561 16.111C31.6521 16.0734 32.0497 16.0558 32.4474 16.0598V17.651ZM40.5038 12.1454L38.5769 17.3286C38.4566 17.6414 38.3445 17.9566 38.2421 18.2638C38.1922 18.4166 38.1447 18.5622 38.098 18.6998H38.0616C38.0135 18.5486 37.9643 18.3974 37.9142 18.247C37.8146 17.943 37.707 17.6446 37.5968 17.3606L35.5362 12.1454H34.4346L37.3823 19.643C37.4598 19.8238 37.4713 19.9062 37.4713 19.9398C37.4713 19.9502 37.4676 20.0118 37.3811 20.2398C37.2201 20.6462 37.0101 21.0326 36.7558 21.3894C36.5194 21.7078 36.3031 21.9662 36.1103 22.1566C35.8863 22.3782 35.6552 22.5598 35.4203 22.6974C35.1803 22.8374 34.9614 22.951 34.7673 23.0366L34.6561 23.0854L35.0151 23.9486L35.1291 23.907C35.2224 23.8718 35.398 23.7926 35.6642 23.6646C35.933 23.5334 36.2308 23.3254 36.5482 23.0446C36.8297 22.799 37.0795 22.5206 37.2922 22.215C37.5097 21.9062 37.7274 21.5438 37.9413 21.1406C38.1524 20.7382 38.3637 20.2814 38.5698 19.7806C38.776 19.2766 38.9974 18.7142 39.2261 18.1094L41.6067 12.1454H40.5038ZM43.7014 1.34033L44.1892 1.34081C44.323 1.34153 44.4567 1.34337 44.5911 1.34657C44.835 1.35297 45.1218 1.36617 45.3978 1.41561C45.6533 1.46121 45.8696 1.53177 46.0789 1.63657C46.502 1.84857 46.8458 2.18937 47.0602 2.60777C47.1665 2.81497 47.237 3.02857 47.283 3.28217C47.3322 3.55257 47.3464 3.83657 47.3522 4.07977C47.3559 4.21097 47.3579 4.34377 47.3586 4.47737C47.3598 4.63737 47.3598 4.79897 47.3598 4.95977V26.8542C47.3598 27.015 47.3598 27.1758 47.3586 27.339C47.3581 27.471 47.3558 27.603 47.3522 27.7342C47.3458 27.9774 47.3322 28.2614 47.283 28.5334C47.2431 28.7678 47.168 28.9942 47.0602 29.2062C46.8446 29.6246 46.5005 29.9646 46.0776 30.1782C45.8634 30.2846 45.6343 30.359 45.3978 30.399C45.1315 30.4414 44.8626 30.4638 44.5931 30.467C44.4586 30.4702 44.3242 30.4726 44.1878 30.4726C44.0258 30.4734 43.8627 30.4734 43.7007 30.4734H4.29279C4.13208 30.4734 3.97153 30.4734 3.80897 30.4726C3.67454 30.4726 3.5401 30.4702 3.40888 30.467C3.13862 30.4638 2.86898 30.4406 2.60226 30.399C2.36488 30.3598 2.13502 30.2846 1.92038 30.1774C1.71005 30.0718 1.51815 29.9334 1.35206 29.7678C1.1852 29.6038 1.04616 29.4134 0.93968 29.2062C0.831368 28.9934 0.756232 28.7662 0.716288 28.5318C0.6728 28.2686 0.649448 28.0014 0.646528 27.7342C0.643304 27.6022 0.641464 27.4702 0.640696 27.3382L0.640232 26.9518V4.86297L0.640696 4.47737C0.641464 4.34457 0.643304 4.21257 0.646528 4.07977C0.652984 3.83817 0.666352 3.55417 0.716288 3.28057C0.755928 3.04617 0.831208 2.81977 0.93968 2.60777C1.15448 2.18937 1.49818 1.84937 1.92116 1.63657C2.13534 1.52937 2.36472 1.45545 2.60149 1.41633C2.86852 1.37321 3.13832 1.35009 3.40888 1.34721C3.54255 1.34401 3.67638 1.34217 3.80958 1.34161L4.29863 1.34033H43.7014ZM43.7014 0.70697H4.29863L3.80636 0.707611C3.66808 0.708171 3.5298 0.710168 3.39152 0.713928C3.08915 0.717928 2.78739 0.744252 2.48886 0.792572C2.19034 0.843292 1.90103 0.937532 1.63046 1.07241C1.08795 1.34689 0.646528 1.78377 0.36936 2.32057C0.232768 2.58777 0.137208 2.87417 0.086352 3.17017C0.037032 3.46537 0.010296 3.76377 0.00645599 4.06297C0.00322399 4.19897 0.00123207 4.33577 0.000616074 4.47257L0 4.95977V26.8542L0.000616074 27.3422C0.00123207 27.479 0.00322406 27.6158 0.00706406 27.7518C0.0153601 28.0494 0.033184 28.3494 0.087112 28.6438C0.140888 28.9438 0.229696 29.2214 0.36936 29.4934C0.645304 30.031 1.08734 30.4686 1.63108 30.7414C1.90564 30.8806 2.18681 30.9678 2.48886 31.0214C2.78662 31.0742 3.09007 31.0918 3.39152 31.0998C3.5298 31.1038 3.66746 31.1054 3.80636 31.1054C3.9703 31.107 4.1347 31.107 4.29863 31.107H43.7014C43.8653 31.107 44.0297 31.107 44.1937 31.1054C44.3319 31.1054 44.4702 31.103 44.6085 31.0998C44.9093 31.0918 45.2127 31.0742 45.5111 31.0214C45.8095 30.971 46.0985 30.8766 46.3688 30.7414C46.9126 30.4686 47.3549 30.0318 47.6306 29.4934C47.7708 29.2214 47.8591 28.9438 47.9129 28.6438C47.9666 28.3494 47.984 28.0494 47.9923 27.7518C47.9962 27.615 47.998 27.4782 47.9986 27.3422C48 27.179 48 27.0174 48 26.8542V4.95977C48 4.79657 48 4.63497 47.9986 4.47177C47.9982 4.33497 47.996 4.19897 47.9923 4.06217C47.9886 3.76297 47.9621 3.46457 47.9129 3.16937C47.8623 2.87417 47.767 2.58777 47.6306 2.31977C47.3539 1.78217 46.9122 1.34537 46.3688 1.07177C46.0985 0.936971 45.8095 0.842572 45.5111 0.791772C45.2126 0.743612 44.9109 0.717293 44.6085 0.713373C44.4696 0.709373 44.3311 0.70817 44.1937 0.70697H43.7014Z" fill="white"/>
</svg>
