<svg width="367" height="86" viewBox="0 0 367 86" fill="none" xmlns="http://www.w3.org/2000/svg">
<path d="M0 76.9998C80.5 108.499 74.5 -21.5005 0 11.9998V27.9995C12.5 14.9995 38.5 13.9995 43.5 36.4995H9.5V49.9995H43.5C46.5 62.9995 21.6 80.5995 0 60.9995V76.9998Z" fill="white"/>
<path d="M76.5 54.9995C76.5 69.7995 66.8333 69.8329 62 67.9995V81.4995C82.8 86.6995 89.3333 69.9995 90 60.9995V20.9995H111.5V81.4995H124.5V7.49951H76.5V54.9995Z" fill="white"/>
<path d="M193 10.9998V27.9995C186.5 23 182.501 19.7263 177 19C132.874 14.8196 144.673 86.0941 184 67.5C186.969 66.0964 189.678 63.5383 193 60.9995V77.9998C113.5 107.5 117.5 -21 193 10.9998Z" fill="white"/>
<path d="M277 44.5C277 65.763 259.987 83 239 83C218.013 83 200 65.763 200 44.5C200 23.237 218.013 6 239 6C259.987 6 277 23.237 277 44.5ZM214 44.5C214 58.9218 224.766 70.6129 239 70.6129C253.234 70.6129 263.5 58.9218 263.5 44.5C263.5 30.0782 253.234 18.3871 239 18.3871C224.766 18.3871 214 30.0782 214 44.5Z" fill="white"/>
<path d="M301.5 0.5L285.5 81H299.5L306 42.5L326.5 86L346 42.5L351.5 81H366.5L351.5 0.5L326.5 55L301.5 0.5Z" fill="white"/>
</svg>
