<svg width="48" height="37" viewBox="0 0 48 37" fill="none" xmlns="http://www.w3.org/2000/svg">
<path d="M11.9723 14.0976C12.8545 14.0976 13.6454 14.3976 14.2638 14.9792L15.9674 13.3056C14.9331 12.3544 13.5845 11.7632 11.9723 11.7632C9.64016 11.7632 7.62232 13.0856 6.6388 15.0088C6.2332 15.8104 6 16.7024 6 17.6536C6 18.6056 6.2332 19.5072 6.6388 20.2984L6.64248 20.296C7.62736 22.2352 9.64304 23.544 11.9723 23.544C13.5845 23.544 14.9432 23.0232 15.9267 22.1216C17.0522 21.1 17.7012 19.5872 17.7012 17.7944C17.7012 17.3832 17.6606 16.9824 17.5998 16.592H11.9723V18.856H15.1967C15.0547 19.6072 14.639 20.2288 14.0002 20.6488C13.4628 21.0096 12.7734 21.2104 11.9723 21.2104C10.4108 21.2104 9.09264 20.1784 8.62616 18.776H8.6228C8.50336 18.4184 8.44368 18.0504 8.44368 17.6536C8.44368 17.2632 8.51464 16.8824 8.62616 16.5216V16.4928C9.1112 15.1152 10.4318 14.0976 11.9723 14.0976Z" fill="white"/>
<path fill-rule="evenodd" clip-rule="evenodd" d="M23.097 22.8355V18.6875H25.2976C26.2096 18.6875 26.9704 18.3971 27.5888 17.8163C28.2376 17.2355 28.552 16.5139 28.552 15.6419C28.552 14.7907 28.228 14.0691 27.5888 13.4787C26.96 12.8875 26.2 12.5867 25.2976 12.5867H21.7586V22.8355H23.097ZM23.097 17.4251V13.8491H25.328C25.8552 13.8491 26.3016 14.0291 26.6456 14.3899C27.0008 14.7403 27.1832 15.1515 27.1832 15.6323C27.1832 16.1235 27.0008 16.5435 26.6456 16.8947C26.3016 17.2451 25.8552 17.4251 25.328 17.4251H23.097Z" fill="white"/>
<path fill-rule="evenodd" clip-rule="evenodd" d="M31.6245 15.5929C32.6077 15.5929 33.3885 15.8529 33.9565 16.3745C34.5245 16.8953 34.8085 17.6065 34.8085 18.5177V22.8457H33.5309V21.8737H33.4701C32.9221 22.6753 32.1821 23.0761 31.2693 23.0761C30.4885 23.0761 29.8293 22.8457 29.3021 22.3849C28.7749 21.9241 28.5117 21.3529 28.5117 20.6617C28.5117 19.9409 28.7853 19.3593 29.3429 18.9289C29.9005 18.4977 30.6405 18.2873 31.5733 18.2873C32.3645 18.2873 33.0237 18.4281 33.5309 18.7185V18.4177C33.5309 17.9569 33.3477 17.5665 32.9829 17.2561C32.6181 16.9353 32.1821 16.7745 31.6949 16.7745C30.9549 16.7745 30.3565 17.0857 29.9205 17.7065L28.7445 16.9753C29.4037 16.0537 30.3565 15.5929 31.6245 15.5929ZM29.9005 20.6921C29.9005 21.0329 30.0525 21.3233 30.3469 21.5537C30.6405 21.7841 30.9853 21.8937 31.3813 21.8937C31.9389 21.8937 32.4453 21.6833 32.8813 21.2833C33.3173 20.8721 33.5405 20.3913 33.5405 19.8401C33.1253 19.5201 32.5469 19.3497 31.7965 19.3497C31.2589 19.3497 30.8029 19.4801 30.4381 19.7401C30.0829 19.9905 29.9005 20.3113 29.9005 20.6921Z" fill="white"/>
<path d="M42.1479 15.8195L37.6863 25.9275H36.3175L37.9703 22.3915L35.0399 15.8195H36.4903L38.6095 20.8683H38.6399L40.6983 15.8195H42.1479Z" fill="white"/>
<path fill-rule="evenodd" clip-rule="evenodd" d="M0 6.74697C0 5.06777 1.3776 3.70697 3.07696 3.70697H44.9232C46.6224 3.70697 48 5.06777 48 6.74697V31.067C48 32.7462 46.6224 34.107 44.9232 34.107H3.07696C1.3776 34.107 0 32.7462 0 31.067V6.74697ZM3.07696 4.31497H44.9232C46.2824 4.31497 47.3848 5.40377 47.3848 6.74697V31.067C47.3848 32.4102 46.2824 33.499 44.9232 33.499H3.07696C1.71744 33.499 0.615363 32.4102 0.615363 31.067V6.74697C0.615363 5.40377 1.71744 4.31497 3.07696 4.31497Z" fill="white"/>
</svg>
