<svg width="45" height="16" viewBox="0 0 45 16" fill="none" xmlns="http://www.w3.org/2000/svg">
<path d="M19.8279 15.3645H16.2335L18.4817 0.967896H22.0759L19.8279 15.3645Z" fill="white"/>
<path d="M32.8574 1.31987C32.1485 1.02862 31.024 0.70697 29.6336 0.70697C26.084 0.70697 23.5845 2.66728 23.5692 5.46985C23.5397 7.53766 25.3588 8.68612 26.7193 9.3756C28.1099 10.0801 28.5826 10.5399 28.5826 11.1679C28.5685 12.1324 27.4589 12.577 26.424 12.577C24.9891 12.577 24.2202 12.3478 23.0516 11.8112L22.5783 11.5811L22.0753 14.8129C22.9183 15.2107 24.4715 15.5637 26.084 15.5791C29.8555 15.5791 32.3108 13.6491 32.3399 10.6625C32.3543 9.02363 31.3937 7.76785 29.3228 6.74175C28.0656 6.083 27.2958 5.63881 27.2958 4.96486C27.3105 4.35213 27.9469 3.72452 29.3661 3.72452C30.5345 3.69379 31.3931 3.9847 32.0435 4.27578L32.3686 4.42864L32.8574 1.31987Z" fill="white"/>
<path d="M37.6348 10.2643C37.9307 9.43725 39.0698 6.23627 39.0698 6.23627C39.0548 6.267 39.3652 5.39393 39.5427 4.85795L39.7939 6.09845C39.7939 6.09845 40.4746 9.54449 40.6224 10.2643C40.0606 10.2643 38.3447 10.2643 37.6348 10.2643ZM42.0716 0.967896H39.2913C38.4339 0.967896 37.7826 1.22807 37.4127 2.16237L32.0737 15.3643H35.8452C35.8452 15.3643 36.4661 13.5875 36.5995 13.2048C37.0133 13.2048 40.6821 13.2048 41.2143 13.2048C41.3176 13.7102 41.6432 15.3643 41.6432 15.3643H44.9713L42.0716 0.967896Z" fill="white"/>
<path d="M13.2311 0.967896L9.71105 10.785L9.32635 8.79402C8.6756 6.49661 6.63458 4.00057 4.35693 2.75941L7.5812 15.3492H11.3821L17.0318 0.967896H13.2311Z" fill="white"/>
<path d="M6.44204 0.967896H0.659078L0.599915 1.25881C5.11098 2.45345 8.0986 5.33327 9.32607 8.79459L8.06893 2.17807C7.8619 1.25856 7.22591 0.998218 6.44204 0.967896Z" fill="white"/>
</svg>
