<svg width="21" height="19" viewBox="0 0 21 19" fill="none" xmlns="http://www.w3.org/2000/svg">
<g clip-path="url(#clip0_203_2338)">
<path d="M20.8671 7.72691V8.28941C20.8671 8.7554 20.4893 9.13316 20.0233 9.13316H19.7421L18.824 15.5593C18.7053 16.3906 17.9933 17.0082 17.1535 17.0082H4.33062C3.49084 17.0082 2.77886 16.3906 2.66007 15.5593L1.74207 9.13316H1.46082C0.994819 9.13316 0.617065 8.7554 0.617065 8.28941V7.72691C0.617065 7.26091 0.994819 6.88316 1.46082 6.88316H3.82827L7.58226 1.72148C7.94771 1.21903 8.65125 1.1079 9.15378 1.47335C9.65627 1.8388 9.76736 2.54238 9.40191 3.04487L6.6104 6.88316H14.8737L12.0822 3.04483C11.7168 2.54238 11.8279 1.83876 12.3304 1.47331C12.8328 1.10786 13.5365 1.21896 13.9019 1.72145L17.6559 6.88316H20.0233C20.4893 6.88316 20.8671 7.26091 20.8671 7.72691ZM11.5858 13.9144V9.97691C11.5858 9.51091 11.2081 9.13316 10.7421 9.13316C10.2761 9.13316 9.89832 9.51091 9.89832 9.97691V13.9144C9.89832 14.3804 10.2761 14.7582 10.7421 14.7582C11.2081 14.7582 11.5858 14.3804 11.5858 13.9144ZM15.5233 13.9144V9.97691C15.5233 9.51091 15.1456 9.13316 14.6796 9.13316C14.2136 9.13316 13.8358 9.51091 13.8358 9.97691V13.9144C13.8358 14.3804 14.2136 14.7582 14.6796 14.7582C15.1456 14.7582 15.5233 14.3804 15.5233 13.9144ZM7.64832 13.9144V9.97691C7.64832 9.51091 7.27056 9.13316 6.80457 9.13316C6.33857 9.13316 5.96082 9.51091 5.96082 9.97691V13.9144C5.96082 14.3804 6.33857 14.7582 6.80457 14.7582C7.27056 14.7582 7.64832 14.3804 7.64832 13.9144Z" fill="white"/>
</g>
<defs>
<clipPath id="clip0_203_2338">
<rect width="20.25" height="18" fill="white" transform="translate(0.617065 0.133057)"/>
</clipPath>
</defs>
</svg>
