<svg width="25" height="51" viewBox="0 0 25 51" fill="none" xmlns="http://www.w3.org/2000/svg">
<path fill-rule="evenodd" clip-rule="evenodd" d="M10.5518 0C15.942 1.92279 18.0321 6.84689 16.8221 14.7723C11.3352 10.8002 8.79253 6.00169 10.5518 0ZM24.9966 7.00244C21.0208 7.4241 18.7598 10.3533 17.6752 15C22.6639 13.7144 25.1044 11.0485 24.9966 7.00244Z" fill="#209041"/>
<path fill-rule="evenodd" clip-rule="evenodd" d="M18.8071 31.8048C20.2081 32.1034 21.8249 32.5901 23.1894 32.8618C24.3411 33.0946 24.285 33.1842 24.5904 31.8645C26.3249 24.5106 22.3909 17.1268 15.809 15.3742C10.6729 14.0097 5.44159 16.4789 2.56113 21.1218C1.79059 22.3668 1.72054 22.2862 2.94221 22.743C4.41045 23.2924 5.90672 23.8 7.38617 24.3314C8.42319 22.9891 9.88079 22.0916 11.4901 21.8046C13.0994 21.5175 14.7518 21.8603 16.1425 22.7697C17.5332 23.6791 18.5684 25.0937 19.0571 26.7526C19.5458 28.4115 19.455 30.2027 18.8015 31.7958L18.8071 31.8048Z" fill="#ED6B06"/>
<path fill-rule="evenodd" clip-rule="evenodd" d="M7.0951 51L20.0344 39.2124H20.0516C21.5004 38.0777 22.704 36.6555 23.5883 35.0335C24.1634 33.9677 24.2295 34.0461 23.1772 33.6715C21.797 33.1836 20.0804 32.6841 18.6714 32.1933C17.847 33.6855 16.511 34.822 14.915 35.389C13.3189 35.9561 11.5727 35.9146 10.0049 35.2723C8.43698 34.6301 7.1555 33.4313 6.40146 31.9016C5.64742 30.3719 5.4728 28.6167 5.91044 26.966C6.08013 26.3228 6.34063 25.7076 6.68392 25.1394C5.26348 24.8112 3.80853 24.4366 2.43409 24.1752C0.832498 23.8848 0.864127 23.7454 0.421317 25.5082C-0.279607 28.2839 -0.102643 31.2116 0.927386 33.8806C1.61173 35.7827 1.57435 35.8408 3.39735 36.4942C5.07945 37.0925 7.06922 37.531 8.44078 38.286C7.07497 38.2483 5.12546 37.6559 3.46923 37.3422C1.60598 36.9879 2.11492 37.1912 2.72738 38.8959L7.0951 51Z" fill="#209041"/>
</svg>
